<svg width="25" height="25" viewBox="0 0 25 25" fill="none" xmlns="http://www.w3.org/2000/svg">
<path d="M14.5834 20.8333C15.1359 20.8333 15.6658 20.6138 16.0566 20.2231C16.4473 19.8324 16.6667 19.3025 16.6667 18.75C16.6667 18.1975 16.4473 17.6676 16.0566 17.2768C15.6658 16.8861 15.1359 16.6667 14.5834 16.6667C14.0309 16.6667 13.501 16.8861 13.1103 17.2768C12.7196 17.6676 12.5001 18.1975 12.5001 18.75C12.5001 19.3025 12.7196 19.8324 13.1103 20.2231C13.501 20.6138 14.0309 20.8333 14.5834 20.8333ZM7.29174 20.8333C7.84428 20.8333 8.37418 20.6138 8.76488 20.2231C9.15558 19.8324 9.37508 19.3025 9.37508 18.75C9.37508 18.1975 9.15558 17.6676 8.76488 17.2768C8.37418 16.8861 7.84428 16.6667 7.29174 16.6667C6.73921 16.6667 6.20931 16.8861 5.81861 17.2768C5.4279 17.6676 5.20841 18.1975 5.20841 18.75C5.20841 19.3025 5.4279 19.8324 5.81861 20.2231C6.20931 20.6138 6.73921 20.8333 7.29174 20.8333ZM20.873 6.16978C21.133 6.16139 21.3796 6.0522 21.5606 5.86528C21.7416 5.67837 21.8428 5.42839 21.8428 5.16822C21.8428 4.90804 21.7416 4.65807 21.5606 4.47115C21.3796 4.28424 21.133 4.17504 20.873 4.16666H19.674C18.7345 4.16666 17.922 4.81874 17.7178 5.73541L16.4126 11.6125C16.2084 12.5292 15.3959 13.1812 14.4563 13.1812H6.63133L5.12924 7.17082H14.8636C15.1212 7.15907 15.3644 7.04847 15.5425 6.86202C15.7206 6.67558 15.82 6.42764 15.82 6.16978C15.82 5.91192 15.7206 5.66398 15.5425 5.47754C15.3644 5.2911 15.1212 5.18049 14.8636 5.16874H5.12924C4.82473 5.16865 4.5242 5.23799 4.25051 5.37148C3.97682 5.50498 3.73716 5.69912 3.54976 5.93914C3.36236 6.17916 3.23215 6.45875 3.16903 6.75665C3.10591 7.05455 3.11154 7.36292 3.1855 7.65832L4.68758 13.6667C4.79586 14.1002 5.046 14.4851 5.39821 14.7601C5.75042 15.0351 6.18447 15.1844 6.63133 15.1844H14.4563C15.368 15.1845 16.2524 14.8737 16.9636 14.3032C17.6748 13.7328 18.1701 12.9368 18.3678 12.0469L19.674 6.16978H20.873Z" fill="white"/>
</svg>
