<svg width="193" height="33" viewBox="0 0 193 33" fill="none" xmlns="http://www.w3.org/2000/svg">
<path d="M-2.563e-05 25.2V1.04904e-05H4.60797V17.892L18.144 1.04904e-05H22.5V25.2H17.892V7.34401L4.35597 25.2H-2.563e-05ZM29.0615 25.2V5.97601H33.5615V13.788H43.2455V5.97601H47.7455V25.2H43.2455V17.604H33.5615V25.2H29.0615ZM57.7724 25.2V8.71201L58.8164 9.79201H51.0044V5.97601H69.0044V9.79201H61.2284L62.2724 8.71201V25.2H57.7724ZM80.3888 25.452C78.2528 25.452 76.3808 25.032 74.7728 24.192C73.1888 23.328 71.9528 22.152 71.0648 20.664C70.2008 19.176 69.7688 17.484 69.7688 15.588C69.7688 13.668 70.1888 11.976 71.0288 10.512C71.8928 9.02401 73.0688 7.86001 74.5568 7.02001C76.0688 6.18001 77.7848 5.76001 79.7048 5.76001C81.5768 5.76001 83.2448 6.16801 84.7088 6.98401C86.1728 7.80001 87.3248 8.95201 88.1648 10.44C89.0048 11.928 89.4248 13.68 89.4248 15.696C89.4248 15.888 89.4128 16.104 89.3888 16.344C89.3888 16.584 89.3768 16.812 89.3528 17.028H73.3328V14.04H86.9768L85.2128 14.976C85.2368 13.872 85.0088 12.9 84.5288 12.06C84.0488 11.22 83.3888 10.56 82.5488 10.08C81.7328 9.60001 80.7848 9.36001 79.7048 9.36001C78.6008 9.36001 77.6288 9.60001 76.7888 10.08C75.9728 10.56 75.3248 11.232 74.8448 12.096C74.3888 12.936 74.1608 13.932 74.1608 15.084V15.804C74.1608 16.956 74.4248 17.976 74.9528 18.864C75.4808 19.752 76.2248 20.436 77.1848 20.916C78.1448 21.396 79.2488 21.636 80.4968 21.636C81.5768 21.636 82.5488 21.468 83.4128 21.132C84.2768 20.796 85.0448 20.268 85.7168 19.548L88.1288 22.32C87.2648 23.328 86.1728 24.108 84.8528 24.66C83.5568 25.188 82.0688 25.452 80.3888 25.452ZM105.003 25.452C103.443 25.452 102.015 25.092 100.719 24.372C99.4467 23.652 98.4267 22.572 97.6587 21.132C96.9147 19.668 96.5427 17.82 96.5427 15.588C96.5427 13.332 96.9027 11.484 97.6227 10.044C98.3667 8.60401 99.3747 7.53601 100.647 6.84001C101.919 6.12001 103.371 5.76001 105.003 5.76001C106.899 5.76001 108.567 6.16801 110.007 6.98401C111.471 7.80001 112.623 8.94001 113.463 10.404C114.327 11.868 114.759 13.596 114.759 15.588C114.759 17.58 114.327 19.32 113.463 20.808C112.623 22.272 111.471 23.412 110.007 24.228C108.567 25.044 106.899 25.452 105.003 25.452ZM94.3467 32.184V5.97601H98.6307V10.512L98.4867 15.624L98.8467 20.736V32.184H94.3467ZM104.499 21.6C105.579 21.6 106.539 21.36 107.379 20.88C108.243 20.4 108.927 19.704 109.431 18.792C109.935 17.88 110.187 16.812 110.187 15.588C110.187 14.34 109.935 13.272 109.431 12.384C108.927 11.472 108.243 10.776 107.379 10.296C106.539 9.81601 105.579 9.57601 104.499 9.57601C103.419 9.57601 102.447 9.81601 101.583 10.296C100.719 10.776 100.035 11.472 99.5307 12.384C99.0267 13.272 98.7747 14.34 98.7747 15.588C98.7747 16.812 99.0267 17.88 99.5307 18.792C100.035 19.704 100.719 20.4 101.583 20.88C102.447 21.36 103.419 21.6 104.499 21.6ZM128.885 12.312C131.357 12.312 133.241 12.864 134.537 13.968C135.833 15.072 136.481 16.632 136.481 18.648C136.481 20.736 135.761 22.368 134.321 23.544C132.881 24.696 130.853 25.26 128.237 25.236L119.237 25.2V5.97601H123.737V12.276L128.885 12.312ZM127.841 21.924C129.161 21.948 130.169 21.672 130.865 21.096C131.561 20.52 131.909 19.68 131.909 18.576C131.909 17.472 131.561 16.68 130.865 16.2C130.193 15.696 129.185 15.432 127.841 15.408L123.737 15.372V21.888L127.841 21.924ZM149.401 25.452C147.265 25.452 145.393 25.032 143.785 24.192C142.201 23.328 140.965 22.152 140.077 20.664C139.213 19.176 138.781 17.484 138.781 15.588C138.781 13.668 139.201 11.976 140.041 10.512C140.905 9.02401 142.081 7.86001 143.569 7.02001C145.081 6.18001 146.797 5.76001 148.717 5.76001C150.589 5.76001 152.257 6.16801 153.721 6.98401C155.185 7.80001 156.337 8.95201 157.177 10.44C158.017 11.928 158.437 13.68 158.437 15.696C158.437 15.888 158.425 16.104 158.401 16.344C158.401 16.584 158.389 16.812 158.365 17.028H142.345V14.04H155.989L154.225 14.976C154.249 13.872 154.021 12.9 153.541 12.06C153.061 11.22 152.401 10.56 151.561 10.08C150.745 9.60001 149.797 9.36001 148.717 9.36001C147.613 9.36001 146.641 9.60001 145.801 10.08C144.985 10.56 144.337 11.232 143.857 12.096C143.401 12.936 143.173 13.932 143.173 15.084V15.804C143.173 16.956 143.437 17.976 143.965 18.864C144.493 19.752 145.237 20.436 146.197 20.916C147.157 21.396 148.261 21.636 149.509 21.636C150.589 21.636 151.561 21.468 152.425 21.132C153.289 20.796 154.057 20.268 154.729 19.548L157.141 22.32C156.277 23.328 155.185 24.108 153.865 24.66C152.569 25.188 151.081 25.452 149.401 25.452ZM174.014 25.452C172.454 25.452 171.026 25.092 169.73 24.372C168.458 23.652 167.438 22.572 166.67 21.132C165.926 19.668 165.554 17.82 165.554 15.588C165.554 13.332 165.914 11.484 166.634 10.044C167.378 8.60401 168.386 7.53601 169.658 6.84001C170.93 6.12001 172.382 5.76001 174.014 5.76001C175.91 5.76001 177.578 6.16801 179.018 6.98401C180.482 7.80001 181.634 8.94001 182.474 10.404C183.338 11.868 183.77 13.596 183.77 15.588C183.77 17.58 183.338 19.32 182.474 20.808C181.634 22.272 180.482 23.412 179.018 24.228C177.578 25.044 175.91 25.452 174.014 25.452ZM163.358 32.184V5.97601H167.642V10.512L167.498 15.624L167.858 20.736V32.184H163.358ZM173.51 21.6C174.59 21.6 175.55 21.36 176.39 20.88C177.254 20.4 177.938 19.704 178.442 18.792C178.946 17.88 179.198 16.812 179.198 15.588C179.198 14.34 178.946 13.272 178.442 12.384C177.938 11.472 177.254 10.776 176.39 10.296C175.55 9.81601 174.59 9.57601 173.51 9.57601C172.43 9.57601 171.458 9.81601 170.594 10.296C169.73 10.776 169.046 11.472 168.542 12.384C168.038 13.272 167.786 14.34 167.786 15.588C167.786 16.812 168.038 17.88 168.542 18.792C169.046 19.704 169.73 20.4 170.594 20.88C171.458 21.36 172.43 21.6 173.51 21.6ZM189.301 25.452C188.485 25.452 187.789 25.176 187.213 24.624C186.637 24.048 186.349 23.328 186.349 22.464C186.349 21.552 186.637 20.832 187.213 20.304C187.789 19.752 188.485 19.476 189.301 19.476C190.117 19.476 190.813 19.752 191.389 20.304C191.965 20.832 192.253 21.552 192.253 22.464C192.253 23.328 191.965 24.048 191.389 24.624C190.813 25.176 190.117 25.452 189.301 25.452Z" fill="white"/>
</svg>
