<svg width="19" height="19" viewBox="0 0 19 19" fill="none" xmlns="http://www.w3.org/2000/svg">
<g clip-path="url(#clip0_53373_428)">
<path d="M9.29907 1.11316C10.9342 1.06267 12.5273 1.63644 13.7542 2.71863C14.9811 3.80099 15.7498 5.31046 15.9036 6.93933C16.0545 8.53827 15.5992 10.133 14.634 11.4139L17.968 14.7469C18.0508 14.8297 18.1166 14.9279 18.1614 15.036C18.2062 15.1442 18.2297 15.2607 18.2297 15.3778C18.2297 15.4949 18.2062 15.6114 18.1614 15.7196C18.1165 15.8277 18.0508 15.9259 17.968 16.0087C17.8853 16.0914 17.7871 16.1572 17.679 16.202C17.5707 16.2469 17.4543 16.2694 17.3372 16.2694C17.22 16.2694 17.1036 16.2469 16.9954 16.202C16.8873 16.1572 16.789 16.0914 16.7063 16.0087L13.3733 12.6747C12.0925 13.6424 10.4962 14.0991 8.89575 13.9491C7.26568 13.7962 5.75519 13.0275 4.67212 11.7997C3.58905 10.5718 3.01496 8.97713 3.06665 7.3407C3.11846 5.7041 3.79274 4.14806 4.95142 2.99109C6.10904 1.83516 7.66391 1.16376 9.29907 1.11316ZM9.50903 2.91882C8.28235 2.92382 7.10691 3.41275 6.2395 4.28015C5.37213 5.14755 4.88317 6.32302 4.87817 7.54968C4.87324 8.77628 5.35288 9.95557 6.21313 10.83C6.64353 11.2674 7.15644 11.6151 7.72192 11.8534C8.28759 12.0918 8.89521 12.2161 9.50903 12.2186C10.1227 12.2211 10.7307 12.1017 11.2981 11.868C11.8657 11.6343 12.3816 11.2903 12.8157 10.8563C13.2497 10.4223 13.5936 9.90633 13.8274 9.33875C14.061 8.77131 14.1804 8.16333 14.178 7.54968C14.1755 6.93585 14.0511 6.32824 13.8127 5.76257C13.5744 5.19707 13.2267 4.68419 12.7893 4.25378C11.9149 3.3935 10.7357 2.91387 9.50903 2.91882Z" fill="white" stroke="white" stroke-width="0.2"/>
</g>
<defs>
<clipPath id="clip0_53373_428">
<rect width="19" height="19" fill="white"/>
</clipPath>
</defs>
</svg>
